<svg xmlns="http://www.w3.org/2000/svg" xmlns:xlink="http://www.w3.org/1999/xlink" xmlns:lucid="lucid" width="1200" height="544"><g transform="translate(0 0)" lucid:page-tab-id="0_0"><path d="M0 0h1200v544H0z" fill="#fff"/><path d="M338 80h300v160H338z" fill="#fff"/><path d="M378 80h40m20 0h40m20 0h40m20 0h40m20 0h20v17.78m0 17.78v35.55m0 17.8v35.54m0 17.78V240h-20m-20 0h-40m-20 0h-40m-20 0h-40m-20 0h-40m-20 0h-20v-17.78m0-17.78V168.9m0-17.8v-35.54m0-17.78V80h20" stroke="#000" stroke-width="2" fill="none"/><use xlink:href="#a" transform="matrix(1,0,0,1,337.9987545988788,80) translate(129.025 14.4)"/><path d="M148 120c17.67 0 32 17.9 32 40s-14.33 40-32 40H52c-17.67 0-32-17.9-32-40s14.33-40 32-40z" stroke="#000" stroke-width="2" fill="#fff"/><use xlink:href="#b" transform="matrix(1,0,0,1,20,120) translate(28.625 43.6)"/><path d="M213.5 161H181v-2h32.5zm144.5 0h-32.5v-2H358z"/><path d="M195.27 164.64L181 160l14.27-4.64z"/><path d="M196.27 166l-16.3-5.3.03-.7-.03-.72 16.3-5.3zm-12.03-6l10.03 3.26v-6.52zM358 160l-14.27 4.64v-9.28z"/><path d="M358 158.95v2.1L342.73 166v-12zm-13.27 4.3l10.03-3.25-10.03-3.26z"/><use xlink:href="#c" transform="matrix(1,0,0,1,213.4905740663864,146.66666666666666) translate(0 10.6640625)"/><use xlink:href="#d" transform="matrix(1,0,0,1,213.4905740663864,146.66666666666666) translate(0 23.997395833333336)"/><path d="M358 120h80v80h-80z" stroke="#000" stroke-width="2" fill="#fff"/><use xlink:href="#e" transform="matrix(1,0,0,1,357.9987545988788,120) translate(11.575000000000003 43.6)"/><path d="M538 120h80v80h-80z" stroke="#000" stroke-width="2" fill="#fff"/><use xlink:href="#f" transform="matrix(1,0,0,1,537.9987545988788,120) translate(9.599999999999998 43.6)"/><path d="M466.02 161H438v-2h28.02zm70.98 0h-28.03v-2H537z"/><path d="M452.26 164.64L438 160l14.26-4.64z"/><path d="M453.26 166L438 161.06v-2.1l15.26-4.96zm-12.03-6l10.03 3.26v-6.52zM537 160l-14.27 4.64v-9.28z"/><path d="M538 159.27v1.46L521.73 166v-12zm-14.27 4l10.03-3.27-10.03-3.26z"/><use xlink:href="#g" transform="matrix(1,0,0,1,466.0237545988788,149.2) translate(0 14.4)"/><path d="M760 80h300v160H760z" fill="#fff"/><path d="M800 80h40m20 0h40m20 0h40m20 0h40m20 0h20v17.78m0 17.78v35.55m0 17.8v35.54m0 17.78V240h-20m-20 0h-40m-20 0h-40m-20 0h-40m-20 0h-40m-20 0h-20v-17.78m0-17.78V168.9m0-17.8v-35.54m0-17.78V80h20" stroke="#000" stroke-width="2" fill="none"/><use xlink:href="#h" transform="matrix(1,0,0,1,760,80) translate(129.525 14.4)"/><path d="M666.33 161H618v-2h48.33zM779 161h-48.33v-2H779z"/><path d="M632.26 164.64L618 160l14.26-4.64z"/><path d="M633.26 166L618 161.06v-2.1l15.26-4.96zm-12.03-6l10.03 3.26v-6.52zM779 160l-14.27 4.64v-9.28z"/><path d="M780 159.27v1.46L763.73 166v-12zm-14.27 4l10.03-3.27-10.03-3.26z"/><use xlink:href="#i" transform="matrix(1,0,0,1,666.3327106327728,144) translate(0.005000000000002558 10.666666666666668)"/><use xlink:href="#j" transform="matrix(1,0,0,1,666.3327106327728,144) translate(13.3012962962963 10.666666666666668)"/><use xlink:href="#k" transform="matrix(1,0,0,1,666.3327106327728,144) translate(10.023518518518522 26.666666666666668)"/><path d="M780 120h80v80h-80z" stroke="#000" stroke-width="2" fill="#fff"/><use xlink:href="#l" transform="matrix(1,0,0,1,780,120) translate(5.599999999999994 32.8)"/><use xlink:href="#m" transform="matrix(1,0,0,1,780,120) translate(7.074999999999996 54.4)"/><path d="M888.52 161H860v-2h28.52zm71.48 0h-28.52v-2H960z"/><path d="M874.27 164.64L860 160l14.27-4.64z"/><path d="M875.27 166L860 161.06v-2.1l15.27-4.96zm-12.03-6l10.03 3.26v-6.52zM960 160l-14.27 4.64v-9.28z"/><path d="M960 158.95v2.1L944.73 166v-12zm-13.27 4.3l10.03-3.25-10.03-3.26z"/><use xlink:href="#g" transform="matrix(1,0,0,1,888.525,149.2) translate(0 14.4)"/><path d="M960 120h80v80h-80z" stroke="#000" stroke-width="2" fill="#fff"/><use xlink:href="#n" transform="matrix(1,0,0,1,960,120) translate(16.549999999999997 43.6)"/><path d="M1048 340c6.63 0 12 17.9 12 40s-5.37 40-12 40h-96c-6.63 0-12-17.9-12-40s5.37-40 12-40z" stroke="#000" stroke-width="2" fill="#fff"/><path d="M1048 420c-6.63 0-12-17.9-12-40s5.37-40 12-40" stroke="#000" stroke-width="2" fill="none"/><use xlink:href="#o" transform="matrix(1,0,0,1,940,340) translate(19.549999999999997 32.8)"/><use xlink:href="#p" transform="matrix(1,0,0,1,940,340) translate(32.05 54.4)"/><path d="M1000 200v140" stroke="#000" stroke-width="2" fill="none"/><path/><path d="M1000 340l-4.64-14.27h9.28z"/><path d="M1001.05 340h-2.1L994 324.73h12zm-4.3-13.27l3.25 10.03 3.26-10.03zM821 340h-2v-46h2zm0-94h-2v-46h2z"/><path/><path d="M824.64 214.27h-9.28L820 200z"/><path d="M826 215.27h-12l4.95-15.27h2.1zm-9.26-2h6.52L820 203.24z"/><use xlink:href="#q" transform="matrix(1,0,0,1,796.2962962962963,246) translate(0.004999999999999005 10.666666666666668)"/><use xlink:href="#r" transform="matrix(1,0,0,1,796.2962962962963,246) translate(11.116111111111115 26.666666666666668)"/><use xlink:href="#s" transform="matrix(1,0,0,1,796.2962962962963,246) translate(1.5605555555555561 42.66666666666667)"/><path d="M815.28 376.8h7.2v4.1h-7.2v-4.1zM780.48 340h76.16v36.8h-76.16V340z" fill="#29aae1"/><path d="M783.92 342.25h69.52v32.9h-69.52v-32.9z" fill="#fff"/><path d="M785.6 343h65.92v31.1H785.6V343z" fill="#fff"/><path d="M783.44 381.15h69.44l-3.44 8.8H780l3.44-8.8z" fill="#29aae1"/><path d="M783.04 380.85h71.04l5.92 9.1h-71.04l-5.92-9.1z" fill="#29aae1"/><path d="M807.12 387.6h25.28v1.85h-25.28v-1.85zM793.2 382.3h1.84v1.15h-1.84v-1.15zM796.48 382.35h1.92v1.15h-1.92v-1.15zM800.72 384.45h1.92v1.15h-1.92v-1.15zM800.08 382.2h1.84v1.2h-1.84v-1.2zM803.28 382.3h1.92v1.15h-1.92v-1.15zM806.4 382.2h1.92v1.2h-1.92v-1.2zM826 382.4h1.92v1.2H826v-1.2zM828.88 382.4h1.92v1.2h-1.92v-1.2zM831.6 382.4h1.92v1.2h-1.92v-1.2zM834.88 382.4h1.84v1.2h-1.84v-1.2zM837.84 382.4h1.84v1.2h-1.84v-1.2zM834.32 384.35h1.84v1.15h-1.84v-1.15zM841.2 382.4h1.92v1.2h-1.92v-1.2zM804.32 384.4h1.84v1.15h-1.84v-1.15zM807.92 384.4h1.84v1.15h-1.84v-1.15zM831.36 384.3h1.6v1.15h-1.6v-1.15zM828.08 384.3H830v1.15h-1.92v-1.15zM809.92 382.25h1.92v1.2h-1.92v-1.2zM813.52 382.3h1.84v1.2h-1.84v-1.2zM816.8 382.25h1.84v1.2h-1.84v-1.2zM820.4 382.25h1.84v1.2h-1.84v-1.2zM823.36 382.3h1.84v1.2h-1.84v-1.2zM811.12 384.35h1.92v1.15h-1.92v-1.15zM814.72 384.35h1.84v1.15h-1.84v-1.15zM818 384.4h1.92v1.15H818v-1.15zM821.28 384.4h1.84v1.15h-1.84v-1.15zM824.64 384.3h1.84v1.15h-1.84v-1.15z" fill="#fff"/><path d="M780.08 389.95l79.92-.2-5.68-8.9-70.8.1-3.44 9z" fill-opacity="0"/><path d="M814.88 376.8h7.84v.55h-7.84v-.55zM815.2 380.2h7.44v.65h-7.44v-.65z" fill="#fff"/><g><use xlink:href="#t" transform="matrix(1,0,0,1,750,390) translate(51.05 18.6)"/></g><path d="M857.6 380H939" stroke="#000" stroke-width="2" fill="none"/><path d="M871.87 384.64L857.6 380l14.27-4.64z"/><path d="M872.87 386l-18.5-6 18.5-6zm-12.03-6l10.03 3.26v-6.52zM939 380l-14.27 4.64v-9.28z"/><path d="M940.04 379.3l-.04.7.02.72-16.3 5.3v-12.03zm-14.3 3.96l10.02-3.26-10.03-3.26z"/><defs><path d="M9 0v-24l116-142H16v-24h144v24L44-24h123V0H9" id="u"/><path d="M177-190C167-65 218 103 67 71c-23-6-38-20-44-43l32-5c15 47 100 32 89-28v-30C133-14 115 1 83 1 29 1 15-40 15-95c0-56 16-97 71-98 29-1 48 16 59 35 1-10 0-23 2-32h30zM94-22c36 0 50-32 50-73 0-42-14-75-50-75-39 0-46 34-46 75s6 73 46 73" id="v"/><path d="M206 0h-36l-40-164L89 0H53L-1-190h32L70-26l43-164h34l41 164 42-164h31" id="w"/><path d="M141-36C126-15 110 5 73 4 37 3 15-17 15-53c-1-64 63-63 125-63 3-35-9-54-41-54-24 1-41 7-42 31l-33-3c5-37 33-52 76-52 45 0 72 20 72 64v82c-1 20 7 32 28 27v20c-31 9-61-2-59-35zM48-53c0 20 12 33 32 33 41-3 63-29 60-74-43 2-92-5-92 41" id="x"/><g id="a"><use transform="matrix(0.05,0,0,0.05,0,0)" xlink:href="#u"/><use transform="matrix(0.05,0,0,0.05,9,0)" xlink:href="#v"/><use transform="matrix(0.05,0,0,0.05,19,0)" xlink:href="#w"/><use transform="matrix(0.05,0,0,0.05,31.950000000000003,0)" xlink:href="#x"/></g><path d="M16-82v-28h88v28H16" id="y"/><path d="M179-190L93 31C79 59 56 82 12 73V49c39 6 53-20 64-50L1-190h34L92-34l54-156h33" id="z"/><path d="M100-194c63 0 86 42 84 106H49c0 40 14 67 53 68 26 1 43-12 49-29l28 8c-11 28-37 45-77 45C44 4 14-33 15-96c1-61 26-98 85-98zm52 81c6-60-76-77-97-28-3 7-6 17-6 28h103" id="A"/><path d="M114-163C36-179 61-72 57 0H25l-1-190h30c1 12-1 29 2 39 6-27 23-49 58-41v29" id="B"/><path d="M108 0H70L1-190h34L89-25l56-165h34" id="C"/><g id="b"><use transform="matrix(0.05,0,0,0.05,0,0)" xlink:href="#u"/><use transform="matrix(0.05,0,0,0.05,9,0)" xlink:href="#y"/><use transform="matrix(0.05,0,0,0.05,14.949999999999998,0)" xlink:href="#w"/><use transform="matrix(0.05,0,0,0.05,27.899999999999995,0)" xlink:href="#x"/><use transform="matrix(0.05,0,0,0.05,37.9,0)" xlink:href="#z"/><use transform="matrix(0.05,0,0,0.05,46.9,0)" xlink:href="#y"/><use transform="matrix(0.05,0,0,0.05,52.85,0)" xlink:href="#u"/><use transform="matrix(0.05,0,0,0.05,61.85,0)" xlink:href="#A"/><use transform="matrix(0.05,0,0,0.05,71.85,0)" xlink:href="#B"/><use transform="matrix(0.05,0,0,0.05,77.8,0)" xlink:href="#C"/><use transform="matrix(0.05,0,0,0.05,86.8,0)" xlink:href="#A"/><use transform="matrix(0.05,0,0,0.05,96.8,0)" xlink:href="#B"/></g><path fill="#834187" d="M114 20l821-1504h178L296 20H114" id="D"/><path fill="#834187" d="M1155 0H73v-143l818-1050H146v-156h962v139L290-156h865V0" id="E"/><path fill="#834187" d="M1018 0H810c-67-251-137-496-194-756C558-495 487-250 419 0H211L0-1349h189c48 393 110 772 142 1181 58-262 128-512 197-763h175c69 251 139 500 197 763 37-402 92-789 139-1181h189" id="F"/><path fill="#834187" d="M1000-272c3 95 12 159 101 161 21 0 41-3 59-7V-6c-44 10-86 16-139 16-141 2-191-84-197-217h-6C748-76 648 20 446 20c-207 0-318-120-318-322 0-266 194-348 454-354l236-4c12-191-40-305-222-305-140 0-220 47-232 172l-188-17c33-204 181-292 423-292 255 0 401 118 401 364v466zm-683-27c0 109 63 184 175 182 166-3 259-96 306-217 24-65 20-120 20-200-232 7-501-28-501 235" id="G"/><path fill="#834187" d="M715 0H502L69-1082h202c94 253 197 500 285 758 19 57 36 126 52 183 96-335 234-626 350-941h201" id="H"/><path fill="#834187" d="M617-1102c355 0 481 238 477 599H322c5 222 84 388 301 388 144 0 244-59 284-166l158 45C1002-72 854 20 623 20c-342 0-490-220-490-568 0-346 151-554 484-554zm291 461c-18-192-90-328-289-328-194 0-287 128-295 328h584" id="I"/><path fill="#834187" d="M1034 0L896-382H333L196 0H0l510-1349h217L1228 0h-194zM847-531c-77-225-157-447-231-674-69 231-154 451-232 674h463" id="J"/><path fill="#834187" d="M622-1349c296 4 497 117 497 404 0 282-193 424-485 431H353V0H162v-1349h460zm-15 684c195-3 320-88 320-277 0-184-129-255-328-254H353v531h254" id="K"/><path fill="#834187" d="M202-1349h823v156H709v1037h316V0H202v-156h316v-1037H202v-156" id="L"/><path fill="#834187" d="M473-1349c438-1 655 221 652 661C1122-268 945-8 532 0H162v-1349h311zm42 1193c308-4 416-205 418-532 2-330-131-509-459-505H353v1037h162" id="M"/><path fill="#834187" d="M682 16c-209 0-323-80-324-285v-671H190v-142h170l58-282h120v282h432v142H538v652c2 114 60 155 182 155 106 0 209-16 297-34v137C921-4 806 16 682 16" id="N"/><g id="c"><use transform="matrix(0.006510416666666667,0,0,0.006510416666666667,0,0)" xlink:href="#D"/><use transform="matrix(0.006510416666666667,0,0,0.006510416666666667,8.001302083333334,0)" xlink:href="#E"/><use transform="matrix(0.006510416666666667,0,0,0.006510416666666667,16.002604166666668,0)" xlink:href="#F"/><use transform="matrix(0.006510416666666667,0,0,0.006510416666666667,24.00390625,0)" xlink:href="#G"/><use transform="matrix(0.006510416666666667,0,0,0.006510416666666667,32.005208333333336,0)" xlink:href="#H"/><use transform="matrix(0.006510416666666667,0,0,0.006510416666666667,40.00651041666667,0)" xlink:href="#I"/><use transform="matrix(0.006510416666666667,0,0,0.006510416666666667,48.00781250000001,0)" xlink:href="#J"/><use transform="matrix(0.006510416666666667,0,0,0.006510416666666667,56.00911458333335,0)" xlink:href="#K"/><use transform="matrix(0.006510416666666667,0,0,0.006510416666666667,64.01041666666667,0)" xlink:href="#L"/><use transform="matrix(0.006510416666666667,0,0,0.006510416666666667,72.01171875,0)" xlink:href="#D"/><use transform="matrix(0.006510416666666667,0,0,0.006510416666666667,80.01302083333333,0)" xlink:href="#M"/><use transform="matrix(0.006510416666666667,0,0,0.006510416666666667,88.01432291666666,0)" xlink:href="#G"/><use transform="matrix(0.006510416666666667,0,0,0.006510416666666667,96.01562499999999,0)" xlink:href="#N"/><use transform="matrix(0.006510416666666667,0,0,0.006510416666666667,104.01692708333331,0)" xlink:href="#G"/></g><path fill="#834187" d="M1121-976c0 225-142 341-344 379L1177 0H957L591-575H353V0H162v-1349h482c281 3 477 100 477 373zM633-726c181-1 296-73 296-247 0-149-101-223-304-223H353v470h280" id="O"/><path fill="#834187" d="M528 20c-247 0-343-132-343-381v-721h180v686c-4 177 45 284 224 277 194-8 279-136 279-336v-627h181c3 360-6 732 6 1082H885c-4-54-7-126-8-185h-3C809-64 714 20 528 20" id="P"/><path fill="#834187" d="M706-1102c241 0 344 136 343 381V0H868v-695c1-168-57-273-220-268-190 6-283 138-283 336V0H185c-3-360 6-732-6-1082h170c4 54 7 126 8 185h3c63-121 164-204 346-205" id="Q"/><g id="d"><use transform="matrix(0.006510416666666667,0,0,0.006510416666666667,0,0)" xlink:href="#D"/><use transform="matrix(0.006510416666666667,0,0,0.006510416666666667,8.001302083333334,0)" xlink:href="#E"/><use transform="matrix(0.006510416666666667,0,0,0.006510416666666667,16.002604166666668,0)" xlink:href="#F"/><use transform="matrix(0.006510416666666667,0,0,0.006510416666666667,24.00390625,0)" xlink:href="#G"/><use transform="matrix(0.006510416666666667,0,0,0.006510416666666667,32.005208333333336,0)" xlink:href="#H"/><use transform="matrix(0.006510416666666667,0,0,0.006510416666666667,40.00651041666667,0)" xlink:href="#I"/><use transform="matrix(0.006510416666666667,0,0,0.006510416666666667,48.00781250000001,0)" xlink:href="#J"/><use transform="matrix(0.006510416666666667,0,0,0.006510416666666667,56.00911458333335,0)" xlink:href="#K"/><use transform="matrix(0.006510416666666667,0,0,0.006510416666666667,64.01041666666667,0)" xlink:href="#L"/><use transform="matrix(0.006510416666666667,0,0,0.006510416666666667,72.01171875,0)" xlink:href="#D"/><use transform="matrix(0.006510416666666667,0,0,0.006510416666666667,80.01302083333333,0)" xlink:href="#O"/><use transform="matrix(0.006510416666666667,0,0,0.006510416666666667,88.01432291666666,0)" xlink:href="#P"/><use transform="matrix(0.006510416666666667,0,0,0.006510416666666667,96.01562499999999,0)" xlink:href="#Q"/></g><path d="M96-169c-40 0-48 33-48 73s9 75 48 75c24 0 41-14 43-38l32 2c-6 37-31 61-74 61-59 0-76-41-82-99-10-93 101-131 147-64 4 7 5 14 7 22l-32 3c-4-21-16-35-41-35" id="R"/><path d="M24 0v-261h32V0H24" id="S"/><path d="M24-231v-30h32v30H24zM24 0v-190h32V0H24" id="T"/><path d="M117-194c89-4 53 116 60 194h-32v-121c0-31-8-49-39-48C34-167 62-67 57 0H25l-1-190h30c1 10-1 24 2 32 11-22 29-35 61-36" id="U"/><path d="M59-47c-2 24 18 29 38 22v24C64 9 27 4 27-40v-127H5v-23h24l9-43h21v43h35v23H59v120" id="V"/><g id="e"><use transform="matrix(0.05,0,0,0.05,0,0)" xlink:href="#u"/><use transform="matrix(0.05,0,0,0.05,9,0)" xlink:href="#y"/><use transform="matrix(0.05,0,0,0.05,14.949999999999998,0)" xlink:href="#R"/><use transform="matrix(0.05,0,0,0.05,23.95,0)" xlink:href="#S"/><use transform="matrix(0.05,0,0,0.05,27.899999999999995,0)" xlink:href="#T"/><use transform="matrix(0.05,0,0,0.05,31.849999999999994,0)" xlink:href="#A"/><use transform="matrix(0.05,0,0,0.05,41.849999999999994,0)" xlink:href="#U"/><use transform="matrix(0.05,0,0,0.05,51.849999999999994,0)" xlink:href="#V"/></g><g id="f"><use transform="matrix(0.05,0,0,0.05,0,0)" xlink:href="#w"/><use transform="matrix(0.05,0,0,0.05,12.950000000000001,0)" xlink:href="#y"/><use transform="matrix(0.05,0,0,0.05,18.900000000000002,0)" xlink:href="#R"/><use transform="matrix(0.05,0,0,0.05,27.900000000000002,0)" xlink:href="#S"/><use transform="matrix(0.05,0,0,0.05,31.85,0)" xlink:href="#T"/><use transform="matrix(0.05,0,0,0.05,35.800000000000004,0)" xlink:href="#A"/><use transform="matrix(0.05,0,0,0.05,45.800000000000004,0)" xlink:href="#U"/><use transform="matrix(0.05,0,0,0.05,55.800000000000004,0)" xlink:href="#V"/></g><path d="M210-169c-67 3-38 105-44 169h-31v-121c0-29-5-50-35-48C34-165 62-65 56 0H25l-1-190h30c1 10-1 24 2 32 10-44 99-50 107 0 11-21 27-35 58-36 85-2 47 119 55 194h-31v-121c0-29-5-49-35-48" id="W"/><path d="M115-194c55 1 70 41 70 98S169 2 115 4C84 4 66-9 55-30l1 105H24l-1-265h31l2 30c10-21 28-34 59-34zm-8 174c40 0 45-34 45-75s-6-73-45-74c-42 0-51 32-51 76 0 43 10 73 51 73" id="X"/><path d="M135-143c-3-34-86-38-87 0 15 53 115 12 119 90S17 21 10-45l28-5c4 36 97 45 98 0-10-56-113-15-118-90-4-57 82-63 122-42 12 7 21 19 24 35" id="Y"/><g id="g"><use transform="matrix(0.05,0,0,0.05,0,0)" xlink:href="#W"/><use transform="matrix(0.05,0,0,0.05,14.950000000000001,0)" xlink:href="#X"/><use transform="matrix(0.05,0,0,0.05,24.950000000000003,0)" xlink:href="#Y"/><use transform="matrix(0.05,0,0,0.05,33.95,0)" xlink:href="#R"/></g><g id="h"><use transform="matrix(0.05,0,0,0.05,0,0)" xlink:href="#u"/><use transform="matrix(0.05,0,0,0.05,9,0)" xlink:href="#v"/><use transform="matrix(0.05,0,0,0.05,19,0)" xlink:href="#w"/><use transform="matrix(0.05,0,0,0.05,31.950000000000003,0)" xlink:href="#Y"/></g><use transform="matrix(0.03703703703703704,0,0,0.03703703703703704,0,0)" xlink:href="#w" id="i"/><path d="M101-234c-31-9-42 10-38 44h38v23H63V0H32v-167H5v-23h27c-7-52 17-82 69-68v24" id="Z"/><g id="j"><use transform="matrix(0.03703703703703704,0,0,0.03703703703703704,0,0)" xlink:href="#T"/><use transform="matrix(0.03703703703703704,0,0,0.03703703703703704,2.9259259259259265,0)" xlink:href="#U"/><use transform="matrix(0.03703703703703704,0,0,0.03703703703703704,10.333333333333334,0)" xlink:href="#V"/><use transform="matrix(0.03703703703703704,0,0,0.03703703703703704,14.037037037037038,0)" xlink:href="#A"/><use transform="matrix(0.03703703703703704,0,0,0.03703703703703704,21.44444444444445,0)" xlink:href="#B"/><use transform="matrix(0.03703703703703704,0,0,0.03703703703703704,25.85185185185186,0)" xlink:href="#Z"/><use transform="matrix(0.03703703703703704,0,0,0.03703703703703704,29.555555555555564,0)" xlink:href="#x"/><use transform="matrix(0.03703703703703704,0,0,0.03703703703703704,36.962962962962976,0)" xlink:href="#R"/><use transform="matrix(0.03703703703703704,0,0,0.03703703703703704,43.62962962962964,0)" xlink:href="#A"/></g><path d="M87 75C49 33 22-17 22-94c0-76 28-126 65-167h31c-38 41-64 92-64 168S80 34 118 75H87" id="aa"/><path d="M233-177c-1 41-23 64-60 70L243 0h-38l-65-103H63V0H30v-248c88 3 205-21 203 71zM63-129c60-2 137 13 137-47 0-61-80-42-137-45v92" id="ab"/><path d="M30 0v-248h187v28H63v79h144v27H63v87h162V0H30" id="ac"/><path d="M185-189c-5-48-123-54-124 2 14 75 158 14 163 119 3 78-121 87-175 55-17-10-28-26-33-46l33-7c5 56 141 63 141-1 0-78-155-14-162-118-5-82 145-84 179-34 5 7 8 16 11 25" id="ad"/><path d="M127-220V0H93v-220H8v-28h204v28h-85" id="ae"/><path d="M33-261c38 41 65 92 65 168S71 34 33 75H2C39 34 66-17 66-93S39-220 2-261h31" id="af"/><g id="k"><use transform="matrix(0.03703703703703704,0,0,0.03703703703703704,0,0)" xlink:href="#aa"/><use transform="matrix(0.03703703703703704,0,0,0.03703703703703704,4.407407407407408,0)" xlink:href="#ab"/><use transform="matrix(0.03703703703703704,0,0,0.03703703703703704,14.000000000000002,0)" xlink:href="#ac"/><use transform="matrix(0.03703703703703704,0,0,0.03703703703703704,22.888888888888893,0)" xlink:href="#ad"/><use transform="matrix(0.03703703703703704,0,0,0.03703703703703704,31.777777777777782,0)" xlink:href="#ae"/><use transform="matrix(0.03703703703703704,0,0,0.03703703703703704,39.88888888888889,0)" xlink:href="#af"/></g><g id="l"><use transform="matrix(0.05,0,0,0.05,0,0)" xlink:href="#w"/><use transform="matrix(0.05,0,0,0.05,12.950000000000001,0)" xlink:href="#y"/><use transform="matrix(0.05,0,0,0.05,18.900000000000002,0)" xlink:href="#Y"/><use transform="matrix(0.05,0,0,0.05,27.900000000000002,0)" xlink:href="#A"/><use transform="matrix(0.05,0,0,0.05,37.900000000000006,0)" xlink:href="#B"/><use transform="matrix(0.05,0,0,0.05,43.85000000000001,0)" xlink:href="#C"/><use transform="matrix(0.05,0,0,0.05,52.85,0)" xlink:href="#A"/><use transform="matrix(0.05,0,0,0.05,62.85,0)" xlink:href="#B"/></g><path d="M84 4C-5 8 30-112 23-190h32v120c0 31 7 50 39 49 72-2 45-101 50-169h31l1 190h-30c-1-10 1-25-2-33-11 22-28 36-60 37" id="ag"/><g id="m"><use transform="matrix(0.05,0,0,0.05,0,0)" xlink:href="#ag"/><use transform="matrix(0.05,0,0,0.05,10,0)" xlink:href="#y"/><use transform="matrix(0.05,0,0,0.05,15.949999999999998,0)" xlink:href="#Y"/><use transform="matrix(0.05,0,0,0.05,24.95,0)" xlink:href="#A"/><use transform="matrix(0.05,0,0,0.05,34.95,0)" xlink:href="#B"/><use transform="matrix(0.05,0,0,0.05,40.900000000000006,0)" xlink:href="#C"/><use transform="matrix(0.05,0,0,0.05,49.900000000000006,0)" xlink:href="#A"/><use transform="matrix(0.05,0,0,0.05,59.900000000000006,0)" xlink:href="#B"/></g><path d="M100-194c62-1 85 37 85 99 1 63-27 99-86 99S16-35 15-95c0-66 28-99 85-99zM99-20c44 1 53-31 53-75 0-43-8-75-51-75s-53 32-53 75 10 74 51 75" id="ah"/><g id="n"><use transform="matrix(0.05,0,0,0.05,0,0)" xlink:href="#B"/><use transform="matrix(0.05,0,0,0.05,5.95,0)" xlink:href="#A"/><use transform="matrix(0.05,0,0,0.05,15.949999999999998,0)" xlink:href="#X"/><use transform="matrix(0.05,0,0,0.05,25.950000000000003,0)" xlink:href="#ah"/><use transform="matrix(0.05,0,0,0.05,35.95,0)" xlink:href="#B"/><use transform="matrix(0.05,0,0,0.05,41.900000000000006,0)" xlink:href="#V"/></g><path d="M33 0v-38h34V0H33" id="ai"/><path d="M0 4l72-265h28L28 4H0" id="aj"/><g id="o"><use transform="matrix(0.05,0,0,0.05,0,0)" xlink:href="#ai"/><use transform="matrix(0.05,0,0,0.05,5,0)" xlink:href="#aj"/><use transform="matrix(0.05,0,0,0.05,10,0)" xlink:href="#B"/><use transform="matrix(0.05,0,0,0.05,15.949999999999998,0)" xlink:href="#A"/><use transform="matrix(0.05,0,0,0.05,25.950000000000003,0)" xlink:href="#X"/><use transform="matrix(0.05,0,0,0.05,35.95,0)" xlink:href="#ah"/><use transform="matrix(0.05,0,0,0.05,45.95,0)" xlink:href="#B"/><use transform="matrix(0.05,0,0,0.05,51.900000000000006,0)" xlink:href="#V"/></g><g id="p"><use transform="matrix(0.05,0,0,0.05,0,0)" xlink:href="#Z"/><use transform="matrix(0.05,0,0,0.05,5,0)" xlink:href="#T"/><use transform="matrix(0.05,0,0,0.05,8.95,0)" xlink:href="#S"/><use transform="matrix(0.05,0,0,0.05,12.899999999999999,0)" xlink:href="#A"/><use transform="matrix(0.05,0,0,0.05,22.9,0)" xlink:href="#Y"/></g><path d="M85-194c31 0 48 13 60 33l-1-100h32l1 261h-30c-2-10 0-23-3-31C134-8 116 4 85 4 32 4 16-35 15-94c0-66 23-100 70-100zm9 24c-40 0-46 34-46 75 0 40 6 74 45 74 42 0 51-32 51-76 0-42-9-74-50-73" id="ak"/><g id="q"><use transform="matrix(0.03703703703703704,0,0,0.03703703703703704,0,0)" xlink:href="#ag"/><use transform="matrix(0.03703703703703704,0,0,0.03703703703703704,7.407407407407408,0)" xlink:href="#X"/><use transform="matrix(0.03703703703703704,0,0,0.03703703703703704,14.814814814814817,0)" xlink:href="#ak"/><use transform="matrix(0.03703703703703704,0,0,0.03703703703703704,22.222222222222225,0)" xlink:href="#x"/><use transform="matrix(0.03703703703703704,0,0,0.03703703703703704,29.629629629629633,0)" xlink:href="#V"/><use transform="matrix(0.03703703703703704,0,0,0.03703703703703704,33.333333333333336,0)" xlink:href="#A"/><use transform="matrix(0.03703703703703704,0,0,0.03703703703703704,40.74074074074075,0)" xlink:href="#Y"/></g><g id="r"><use transform="matrix(0.03703703703703704,0,0,0.03703703703703704,0,0)" xlink:href="#v"/><use transform="matrix(0.03703703703703704,0,0,0.03703703703703704,7.407407407407408,0)" xlink:href="#A"/><use transform="matrix(0.03703703703703704,0,0,0.03703703703703704,14.814814814814817,0)" xlink:href="#V"/><use transform="matrix(0.03703703703703704,0,0,0.03703703703703704,18.51851851851852,0)" xlink:href="#Y"/></g><g id="s"><use transform="matrix(0.03703703703703704,0,0,0.03703703703703704,0,0)" xlink:href="#aa"/><use transform="matrix(0.03703703703703704,0,0,0.03703703703703704,4.407407407407408,0)" xlink:href="#ab"/><use transform="matrix(0.03703703703703704,0,0,0.03703703703703704,14.000000000000002,0)" xlink:href="#ac"/><use transform="matrix(0.03703703703703704,0,0,0.03703703703703704,22.888888888888893,0)" xlink:href="#ad"/><use transform="matrix(0.03703703703703704,0,0,0.03703703703703704,31.777777777777782,0)" xlink:href="#ae"/><use transform="matrix(0.03703703703703704,0,0,0.03703703703703704,39.88888888888889,0)" xlink:href="#af"/></g><path d="M232-93c-1 65-40 97-104 97C67 4 28-28 28-90v-158h33c8 89-33 224 67 224 102 0 64-133 71-224h33v155" id="al"/><g id="t"><use transform="matrix(0.05,0,0,0.05,0,0)" xlink:href="#al"/><use transform="matrix(0.05,0,0,0.05,12.950000000000001,0)" xlink:href="#Y"/><use transform="matrix(0.05,0,0,0.05,21.950000000000003,0)" xlink:href="#A"/><use transform="matrix(0.05,0,0,0.05,31.950000000000003,0)" xlink:href="#B"/></g></defs></g></svg>