<svg xmlns="http://www.w3.org/2000/svg" xmlns:xlink="http://www.w3.org/1999/xlink" xmlns:lucid="lucid" width="1360" height="1760"><g transform="translate(0 0)" lucid:page-tab-id="0_0"><path d="M0 0h1360v1760H0z" fill="#fff"/><path d="M760.45 320.9l-.9-1.8 156.6-78.3h4.5zm360-180l-156.6 78.3h-4.5l160.2-80.1z" fill="#0c7cba"/><path d="M1120 140l-.45-.9.52-.25zM774.83 317.77L760 320l10.7-10.53z" fill="#0c7cba"/><path d="M776.34 318.55L760 321v-2.4l10.97-10.8zm-13.45 0l10.42-1.57-2.9-5.83z" fill="#0c7cba"/><use xlink:href="#a" transform="matrix(1,0,0,1,892.075,219.2) translate(0 14.4)"/><path d="M168 100c17.67 0 32 17.9 32 40s-14.33 40-32 40H72c-17.67 0-32-17.9-32-40s14.33-40 32-40z" stroke="#000" stroke-width="2" fill="#fff"/><use xlink:href="#b" transform="matrix(1,0,0,1,45,105) translate(46.925 38.6)"/><path d="M168 280c17.67 0 32 17.9 32 40s-14.33 40-32 40H72c-17.67 0-32-17.9-32-40s14.33-40 32-40z" stroke="#000" stroke-width="2" fill="#fff"/><use xlink:href="#c" transform="matrix(1,0,0,1,45,285) translate(39.525 38.6)"/><path d="M340 260h160v120H340z" stroke="#000" stroke-width="2" fill="#fff"/><use xlink:href="#d" transform="matrix(1,0,0,1,345,265) translate(44.525 58.6)"/><path d="M600 80h160v120H600z" stroke="#000" stroke-width="2" fill="#fff"/><use xlink:href="#e" transform="matrix(1,0,0,1,605,85) translate(45.074999999999996 58.6)"/><path d="M840 260h160v120H840z" stroke="#000" stroke-width="2" fill="#fff"/><use xlink:href="#f" transform="matrix(1,0,0,1,845,265) translate(47.525 58.6)"/><path d="M1248 100c17.67 0 32 17.9 32 40s-14.33 40-32 40h-96c-17.67 0-32-17.9-32-40s14.33-40 32-40z" stroke="#000" stroke-width="2" fill="#fff"/><use xlink:href="#g" transform="matrix(1,0,0,1,1125,105) translate(34.099999999999994 38.6)"/><use xlink:href="#h" transform="matrix(1,0,0,1,1125,105) translate(80.94999999999999 38.6)"/><path d="M1248 280c17.67 0 32 17.9 32 40s-14.33 40-32 40h-96c-17.67 0-32-17.9-32-40s14.33-40 32-40z" stroke="#000" stroke-width="2" fill="#fff"/><use xlink:href="#i" transform="matrix(1,0,0,1,1125,285) translate(45.55 38.6)"/><use xlink:href="#h" transform="matrix(1,0,0,1,1125,285) translate(69.5 38.6)"/><path d="M357.05 141H200v-2h157.05zM600 141H442.95v-2H600zM200 140v1l-.04-2z"/><path d="M600 140l-14.27 4.64v-9.28z"/><path d="M600 138.95v2.1L584.73 146v-12zm-13.27 4.3l10.03-3.25-10.03-3.26z"/><use xlink:href="#j" transform="matrix(1,0,0,1,357.05,129.2) translate(0 14.4)"/><path d="M840.9 319.6l-1.8.8-35.4-79.6h2.2zm-44.6-100.4h-2.2l-35-78.8 1.8-.8z"/><path d="M760.9 139.6l-.9.4v-2.46zM840 320l-10.03-11.15 8.47-3.77z"/><path d="M840 310.37v11.13l-11.7-13 11-4.9zm-8.37-1.17l7.06 7.84-1.1-10.5z"/><use xlink:href="#j" transform="matrix(1,0,0,1,757.05,219.2) translate(0 14.4)"/><path d="M906.55 141H760v-2h146.55zm213.45 0H973.45v-2H1120zM1120.04 141l-.04-1v-1z"/><path d="M774.27 144.64L760 140l14.27-4.64z"/><path d="M775.27 146L760 141.06v-2.1l15.27-4.96zm-12.03-6l10.03 3.26v-6.52z"/><use xlink:href="#k" transform="matrix(1,0,0,1,906.55,129.2) translate(0 14.4)"/><path d="M1031.53 321H1001v-2h30.53zm88.47 0h-30.53v-2H1120zM1001 321h-1v-2h1z"/><path d="M1120 320l-14.27 4.64v-9.28z"/><path d="M1120.06 318.97L1120 320l.04 1.04-15.3 4.97v-12zm-13.33 4.3l10.03-3.27-10.03-3.26z"/><use xlink:href="#l" transform="matrix(1,0,0,1,1031.525,298.4) translate(0 14.4)"/><use xlink:href="#m" transform="matrix(1,0,0,1,1031.525,298.4) translate(0 36)"/><path d="M500.87 320.5l-1.74-1 43.73-78.7h2.28zm100-180l-43.73 78.7h-2.28l44.27-79.7z"/><path d="M600 140l-.87-.5.87-1.56zM510.98 309.78L500 320l2.88-14.72z"/><path d="M512.67 309.57L500 321.37v-6.6l2.16-11.03zm-11.1 7.6l7.72-7.18-5.7-3.18z"/><use xlink:href="#k" transform="matrix(1,0,0,1,516.55,219.2) translate(0 14.4)"/><path d="M236.05 321H200v-2h36.05zM339 321h-36.05v-2H339zM340 321h-1v-2h1z"/><path d="M214.27 324.64L200 320l14.27-4.64z"/><path d="M215.27 326l-15.33-4.97.06-1.03-.04-1.04 15.3-4.97zm-12.03-6l10.03 3.26v-6.52z"/><use xlink:href="#k" transform="matrix(1,0,0,1,236.05,309.2) translate(0 14.4)"/><path d="M0 0h240v60H0z" stroke="#000" stroke-opacity="0" stroke-width="2" fill="#fff" fill-opacity="0"/><use xlink:href="#n" transform="matrix(1,0,0,1,5,5) translate(45.724999999999994 28.6)"/><use xlink:href="#o" transform="matrix(1,0,0,1,5,5) translate(159.325 28.6)"/><path d="M600 260h160v120H600z" stroke="#0c7cba" stroke-width="2" fill="#fff"/><use xlink:href="#p" transform="matrix(1,0,0,1,605,265) translate(40.074999999999996 58.6)"/><path d="M528.36 321H501v-2h27.36zm71.64 0h-13.7v-2H600z" fill="#0c7cba"/><path fill="#0c7cba"/><path d="M515.27 324.64L501 320l14.27-4.64z" fill="#0c7cba"/><path d="M516.27 326L500 320.74v-1.46l16.27-5.28zm-12.03-6l10.03 3.26v-6.52z" fill="#0c7cba"/><use xlink:href="#q" transform="matrix(1,0,0,1,528.3583333333333,298.4) translate(0 14.4)"/><use xlink:href="#r" transform="matrix(1,0,0,1,528.3583333333333,298.4) translate(0 36)"/><path d="M0 40h240v60H0z" stroke="#000" stroke-opacity="0" stroke-width="2" fill="#fff" fill-opacity="0"/><use xlink:href="#s" transform="matrix(1,0,0,1,5,45) translate(34.69999999999999 28.6)"/><use xlink:href="#t" transform="matrix(1,0,0,1,5,45) translate(170.35000000000002 28.6)"/><path d="M340.03 321l-4.4.13-3.9.37-3.56.56-3.3.73-3.12.9-3 1.06-2.9 1.25-2.9 1.48-2.96 1.75-3.18 2.14-3.6 2.78-5.07 4.46-13.8 12.92-2.97 2.28-2.45 1.66-2.2 1.3-2.07 1.04-2 .86-1.96.7-1.98.58-2.03.45-2.1.32-2.23.2-2.37.08-2.9-.12-2.5-.3-2.25-.48-2.04-.6-1.9-.76-1.8-.9-1.8-1.07-1.77-1.3-1.85-1.58-2.03-2.07-2.5-3-12.7-17.72-2.12-2.15-2-1.7-1.93-1.4-1.96-1.2-2.04-1-2.17-.85-2.38-.7-2.66-.57-3.07-.38-3.67-.15.08-2 3.75.15 3.22.4 2.83.6 2.53.76 2.33.93 2.2 1.08 2.1 1.27 2.08 1.5 2.1 1.82 2.3 2.32 12.76 17.8 2.4 2.86 1.9 1.95 1.73 1.48 1.65 1.2 1.63.98 1.67.83 1.75.7 1.88.56 2.07.44 2.35.3 2.74.1 2.25-.07 2.1-.2 1.97-.3 1.9-.43 1.86-.54 1.86-.66 1.88-.8 1.95-1 2.1-1.23 2.34-1.6 2.84-2.18 13.76-12.87 5.14-4.52 3.7-2.86 3.28-2.2 3.07-1.8 3-1.54 3.03-1.3 3.1-1.1 3.24-.94 3.42-.77 3.68-.6 4.04-.36 4.45-.14z" fill="#0c7cba"/><path d="M340 320l-.12-1h.12zM213.1 327.3L200 320l14.9-1.78z" fill="#0c7cba"/><path d="M213.8 328.86l-13.87-7.75.07-1.1-.04-1 16.18-1.94zm-10.63-8.23l9.2 5.14 1.28-6.4z" fill="#0c7cba"/><g><use xlink:href="#a" transform="matrix(1,0,0,1,211.8016140180855,363.9972599849971) translate(0 14.4)"/></g><defs><path fill="#0c7cba" d="M232-93c-1 65-40 97-104 97C67 4 28-28 28-90v-158h33c8 89-33 224 67 224 102 0 64-133 71-224h33v155" id="u"/><path fill="#0c7cba" d="M135-143c-3-34-86-38-87 0 15 53 115 12 119 90S17 21 10-45l28-5c4 36 97 45 98 0-10-56-113-15-118-90-4-57 82-63 122-42 12 7 21 19 24 35" id="v"/><path fill="#0c7cba" d="M100-194c63 0 86 42 84 106H49c0 40 14 67 53 68 26 1 43-12 49-29l28 8c-11 28-37 45-77 45C44 4 14-33 15-96c1-61 26-98 85-98zm52 81c6-60-76-77-97-28-3 7-6 17-6 28h103" id="w"/><path fill="#0c7cba" d="M114-163C36-179 61-72 57 0H25l-1-190h30c1 12-1 29 2 39 6-27 23-49 58-41v29" id="x"/><path fill="#0c7cba" d="M115-194c55 1 70 41 70 98S169 2 115 4C84 4 66-9 55-30l1 105H24l-1-265h31l2 30c10-21 28-34 59-34zm-8 174c40 0 45-34 45-75s-6-73-45-74c-42 0-51 32-51 76 0 43 10 73 51 73" id="y"/><path fill="#0c7cba" d="M85-194c31 0 48 13 60 33l-1-100h32l1 261h-30c-2-10 0-23-3-31C134-8 116 4 85 4 32 4 16-35 15-94c0-66 23-100 70-100zm9 24c-40 0-46 34-46 75 0 40 6 74 45 74 42 0 51-32 51-76 0-42-9-74-50-73" id="z"/><path fill="#0c7cba" d="M141-36C126-15 110 5 73 4 37 3 15-17 15-53c-1-64 63-63 125-63 3-35-9-54-41-54-24 1-41 7-42 31l-33-3c5-37 33-52 76-52 45 0 72 20 72 64v82c-1 20 7 32 28 27v20c-31 9-61-2-59-35zM48-53c0 20 12 33 32 33 41-3 63-29 60-74-43 2-92-5-92 41" id="A"/><path fill="#0c7cba" d="M59-47c-2 24 18 29 38 22v24C64 9 27 4 27-40v-127H5v-23h24l9-43h21v43h35v23H59v120" id="B"/><g id="a"><use transform="matrix(0.05,0,0,0.05,0,0)" xlink:href="#u"/><use transform="matrix(0.05,0,0,0.05,12.950000000000001,0)" xlink:href="#v"/><use transform="matrix(0.05,0,0,0.05,21.950000000000003,0)" xlink:href="#w"/><use transform="matrix(0.05,0,0,0.05,31.950000000000003,0)" xlink:href="#x"/><use transform="matrix(0.05,0,0,0.05,37.900000000000006,0)" xlink:href="#u"/><use transform="matrix(0.05,0,0,0.05,50.85000000000001,0)" xlink:href="#y"/><use transform="matrix(0.05,0,0,0.05,60.85,0)" xlink:href="#z"/><use transform="matrix(0.05,0,0,0.05,70.85000000000001,0)" xlink:href="#A"/><use transform="matrix(0.05,0,0,0.05,80.85000000000001,0)" xlink:href="#B"/><use transform="matrix(0.05,0,0,0.05,85.85000000000001,0)" xlink:href="#w"/></g><path d="M127-220V0H93v-220H8v-28h204v28h-85" id="C"/><path d="M114-163C36-179 61-72 57 0H25l-1-190h30c1 12-1 29 2 39 6-27 23-49 58-41v29" id="D"/><path d="M24-231v-30h32v30H24zM24 0v-190h32V0H24" id="E"/><path d="M177-190C167-65 218 103 67 71c-23-6-38-20-44-43l32-5c15 47 100 32 89-28v-30C133-14 115 1 83 1 29 1 15-40 15-95c0-56 16-97 71-98 29-1 48 16 59 35 1-10 0-23 2-32h30zM94-22c36 0 50-32 50-73 0-42-14-75-50-75-39 0-46 34-46 75s6 73 46 73" id="F"/><path d="M100-194c63 0 86 42 84 106H49c0 40 14 67 53 68 26 1 43-12 49-29l28 8c-11 28-37 45-77 45C44 4 14-33 15-96c1-61 26-98 85-98zm52 81c6-60-76-77-97-28-3 7-6 17-6 28h103" id="G"/><g id="b"><use transform="matrix(0.05,0,0,0.05,0,0)" xlink:href="#C"/><use transform="matrix(0.05,0,0,0.05,10.3,0)" xlink:href="#D"/><use transform="matrix(0.05,0,0,0.05,16.25,0)" xlink:href="#E"/><use transform="matrix(0.05,0,0,0.05,20.2,0)" xlink:href="#F"/><use transform="matrix(0.05,0,0,0.05,30.200000000000003,0)" xlink:href="#F"/><use transform="matrix(0.05,0,0,0.05,40.2,0)" xlink:href="#G"/><use transform="matrix(0.05,0,0,0.05,50.2,0)" xlink:href="#D"/></g><path d="M30 0v-248h187v28H63v79h144v27H63v87h162V0H30" id="H"/><path d="M141 0L90-78 38 0H4l68-98-65-92h35l48 74 47-74h35l-64 92 68 98h-35" id="I"/><path d="M96-169c-40 0-48 33-48 73s9 75 48 75c24 0 41-14 43-38l32 2c-6 37-31 61-74 61-59 0-76-41-82-99-10-93 101-131 147-64 4 7 5 14 7 22l-32 3c-4-21-16-35-41-35" id="J"/><path d="M84 4C-5 8 30-112 23-190h32v120c0 31 7 50 39 49 72-2 45-101 50-169h31l1 190h-30c-1-10 1-25-2-33-11 22-28 36-60 37" id="K"/><path d="M59-47c-2 24 18 29 38 22v24C64 9 27 4 27-40v-127H5v-23h24l9-43h21v43h35v23H59v120" id="L"/><path d="M100-194c62-1 85 37 85 99 1 63-27 99-86 99S16-35 15-95c0-66 28-99 85-99zM99-20c44 1 53-31 53-75 0-43-8-75-51-75s-53 32-53 75 10 74 51 75" id="M"/><g id="c"><use transform="matrix(0.05,0,0,0.05,0,0)" xlink:href="#H"/><use transform="matrix(0.05,0,0,0.05,12,0)" xlink:href="#I"/><use transform="matrix(0.05,0,0,0.05,21,0)" xlink:href="#G"/><use transform="matrix(0.05,0,0,0.05,31,0)" xlink:href="#J"/><use transform="matrix(0.05,0,0,0.05,40,0)" xlink:href="#K"/><use transform="matrix(0.05,0,0,0.05,50,0)" xlink:href="#L"/><use transform="matrix(0.05,0,0,0.05,55,0)" xlink:href="#M"/><use transform="matrix(0.05,0,0,0.05,65,0)" xlink:href="#D"/></g><path d="M115-194c55 1 70 41 70 98S169 2 115 4C84 4 66-9 55-30l1 105H24l-1-265h31l2 30c10-21 28-34 59-34zm-8 174c40 0 45-34 45-75s-6-73-45-74c-42 0-51 32-51 76 0 43 10 73 51 73" id="N"/><path d="M85-194c31 0 48 13 60 33l-1-100h32l1 261h-30c-2-10 0-23-3-31C134-8 116 4 85 4 32 4 16-35 15-94c0-66 23-100 70-100zm9 24c-40 0-46 34-46 75 0 40 6 74 45 74 42 0 51-32 51-76 0-42-9-74-50-73" id="O"/><path d="M141-36C126-15 110 5 73 4 37 3 15-17 15-53c-1-64 63-63 125-63 3-35-9-54-41-54-24 1-41 7-42 31l-33-3c5-37 33-52 76-52 45 0 72 20 72 64v82c-1 20 7 32 28 27v20c-31 9-61-2-59-35zM48-53c0 20 12 33 32 33 41-3 63-29 60-74-43 2-92-5-92 41" id="P"/><g id="d"><use transform="matrix(0.05,0,0,0.05,0,0)" xlink:href="#K"/><use transform="matrix(0.05,0,0,0.05,10,0)" xlink:href="#N"/><use transform="matrix(0.05,0,0,0.05,20,0)" xlink:href="#O"/><use transform="matrix(0.05,0,0,0.05,30,0)" xlink:href="#P"/><use transform="matrix(0.05,0,0,0.05,40,0)" xlink:href="#L"/><use transform="matrix(0.05,0,0,0.05,45,0)" xlink:href="#G"/><use transform="matrix(0.05,0,0,0.05,55,0)" xlink:href="#D"/></g><path d="M210-169c-67 3-38 105-44 169h-31v-121c0-29-5-50-35-48C34-165 62-65 56 0H25l-1-190h30c1 10-1 24 2 32 10-44 99-50 107 0 11-21 27-35 58-36 85-2 47 119 55 194h-31v-121c0-29-5-49-35-48" id="Q"/><path d="M117-194c89-4 53 116 60 194h-32v-121c0-31-8-49-39-48C34-167 62-67 57 0H25l-1-190h30c1 10-1 24 2 32 11-22 29-35 61-36" id="R"/><g id="e"><use transform="matrix(0.05,0,0,0.05,0,0)" xlink:href="#Q"/><use transform="matrix(0.05,0,0,0.05,14.950000000000001,0)" xlink:href="#M"/><use transform="matrix(0.05,0,0,0.05,24.950000000000003,0)" xlink:href="#R"/><use transform="matrix(0.05,0,0,0.05,34.95,0)" xlink:href="#E"/><use transform="matrix(0.05,0,0,0.05,38.900000000000006,0)" xlink:href="#L"/><use transform="matrix(0.05,0,0,0.05,43.900000000000006,0)" xlink:href="#M"/><use transform="matrix(0.05,0,0,0.05,53.900000000000006,0)" xlink:href="#D"/></g><path d="M135-143c-3-34-86-38-87 0 15 53 115 12 119 90S17 21 10-45l28-5c4 36 97 45 98 0-10-56-113-15-118-90-4-57 82-63 122-42 12 7 21 19 24 35" id="S"/><path d="M106-169C34-169 62-67 57 0H25v-261h32l-1 103c12-21 28-36 61-36 89 0 53 116 60 194h-32v-121c2-32-8-49-39-48" id="T"/><g id="f"><use transform="matrix(0.05,0,0,0.05,0,0)" xlink:href="#N"/><use transform="matrix(0.05,0,0,0.05,10,0)" xlink:href="#K"/><use transform="matrix(0.05,0,0,0.05,20,0)" xlink:href="#S"/><use transform="matrix(0.05,0,0,0.05,29,0)" xlink:href="#T"/><use transform="matrix(0.05,0,0,0.05,39,0)" xlink:href="#G"/><use transform="matrix(0.05,0,0,0.05,49,0)" xlink:href="#D"/></g><path d="M63-220v92h138v28H63V0H30v-248h175v28H63" id="U"/><g id="g"><use transform="matrix(0.05,0,0,0.05,0,0)" xlink:href="#U"/><use transform="matrix(0.05,0,0,0.05,10.950000000000001,0)" xlink:href="#D"/><use transform="matrix(0.05,0,0,0.05,16.900000000000002,0)" xlink:href="#M"/><use transform="matrix(0.05,0,0,0.05,26.900000000000002,0)" xlink:href="#Q"/></g><g id="h"><use transform="matrix(0.05,0,0,0.05,0,0)" xlink:href="#K"/><use transform="matrix(0.05,0,0,0.05,10,0)" xlink:href="#S"/><use transform="matrix(0.05,0,0,0.05,19,0)" xlink:href="#G"/><use transform="matrix(0.05,0,0,0.05,29,0)" xlink:href="#D"/></g><g id="i"><use transform="matrix(0.05,0,0,0.05,0,0)" xlink:href="#C"/><use transform="matrix(0.05,0,0,0.05,8.950000000000001,0)" xlink:href="#M"/></g><path d="M190 0L58-211 59 0H30v-248h39L202-35l-2-213h31V0h-41" id="V"/><path d="M232-93c-1 65-40 97-104 97C67 4 28-28 28-90v-158h33c8 89-33 224 67 224 102 0 64-133 71-224h33v155" id="W"/><g id="j"><use transform="matrix(0.05,0,0,0.05,0,0)" xlink:href="#V"/><use transform="matrix(0.05,0,0,0.05,12.950000000000001,0)" xlink:href="#G"/><use transform="matrix(0.05,0,0,0.05,22.950000000000003,0)" xlink:href="#L"/><use transform="matrix(0.05,0,0,0.05,27.950000000000003,0)" xlink:href="#W"/><use transform="matrix(0.05,0,0,0.05,40.900000000000006,0)" xlink:href="#N"/><use transform="matrix(0.05,0,0,0.05,50.900000000000006,0)" xlink:href="#O"/><use transform="matrix(0.05,0,0,0.05,60.900000000000006,0)" xlink:href="#P"/><use transform="matrix(0.05,0,0,0.05,70.9,0)" xlink:href="#L"/><use transform="matrix(0.05,0,0,0.05,75.9,0)" xlink:href="#G"/></g><path d="M143 4C61 4 22-44 18-125c-5-107 100-154 193-111 17 8 29 25 37 43l-32 9c-13-25-37-40-76-40-61 0-88 39-88 99 0 61 29 100 91 101 35 0 62-11 79-27v-45h-74v-28h105v86C228-13 192 4 143 4" id="X"/><g id="k"><use transform="matrix(0.05,0,0,0.05,0,0)" xlink:href="#W"/><use transform="matrix(0.05,0,0,0.05,12.950000000000001,0)" xlink:href="#S"/><use transform="matrix(0.05,0,0,0.05,21.950000000000003,0)" xlink:href="#G"/><use transform="matrix(0.05,0,0,0.05,31.950000000000003,0)" xlink:href="#D"/><use transform="matrix(0.05,0,0,0.05,37.900000000000006,0)" xlink:href="#X"/><use transform="matrix(0.05,0,0,0.05,51.900000000000006,0)" xlink:href="#G"/><use transform="matrix(0.05,0,0,0.05,61.900000000000006,0)" xlink:href="#L"/></g><path d="M16-82v-28h88v28H16" id="Y"/><g id="l"><use transform="matrix(0.05,0,0,0.05,0,0)" xlink:href="#V"/><use transform="matrix(0.05,0,0,0.05,12.950000000000001,0)" xlink:href="#G"/><use transform="matrix(0.05,0,0,0.05,22.950000000000003,0)" xlink:href="#L"/><use transform="matrix(0.05,0,0,0.05,27.950000000000003,0)" xlink:href="#Y"/></g><g id="m"><use transform="matrix(0.05,0,0,0.05,0,0)" xlink:href="#W"/><use transform="matrix(0.05,0,0,0.05,12.950000000000001,0)" xlink:href="#N"/><use transform="matrix(0.05,0,0,0.05,22.950000000000003,0)" xlink:href="#O"/><use transform="matrix(0.05,0,0,0.05,32.95,0)" xlink:href="#P"/><use transform="matrix(0.05,0,0,0.05,42.95,0)" xlink:href="#L"/><use transform="matrix(0.05,0,0,0.05,47.95,0)" xlink:href="#G"/></g><path d="M212 0l43-212L151 0h-37L90-212C82-137 65-70 52 0H6l48-248h70l20 187 93-187h69L258 0h-46" id="Z"/><path d="M124-194c51 0 84 22 84 74C207-44 167 4 94 4 43 4 11-23 11-74c0-74 41-120 113-120zM99-30c46 0 58-42 58-86 0-27-11-44-37-44-44 0-55 40-57 84-1 27 10 45 36 46" id="aa"/><path d="M151-194c95 0 34 128 28 194h-49l25-134c0-29-45-25-59-9C67-111 69-48 56 0H6l36-190h47l-4 32c15-20 33-36 66-36" id="ab"/><path d="M50-224l7-37h49l-7 37H50zM6 0l37-190h49L55 0H6" id="ac"/><path d="M72-63c-8 23 5 39 32 30L98-1C54 14 12-6 23-64l18-93H15l7-33h28l24-45h31l-8 45h35l-6 33H90" id="ad"/><path d="M84-151c13-25 34-51 72-40l-8 41C67-170 71-64 56 0H6l36-190h47" id="ae"/><path d="M10-72l8-43h92l-9 43H10" id="af"/><path d="M6 0l51-261h49L55 0H6" id="ag"/><path d="M100 10C77 47 50 87-15 72l7-35c37 9 51-18 65-41L20-190h51L89-44l73-146h53" id="ah"/><g id="n"><use transform="matrix(0.05,0,0,0.05,0,0)" xlink:href="#Z"/><use transform="matrix(0.05,0,0,0.05,14.950000000000001,0)" xlink:href="#aa"/><use transform="matrix(0.05,0,0,0.05,25.900000000000002,0)" xlink:href="#ab"/><use transform="matrix(0.05,0,0,0.05,36.85,0)" xlink:href="#ac"/><use transform="matrix(0.05,0,0,0.05,41.85,0)" xlink:href="#ad"/><use transform="matrix(0.05,0,0,0.05,47.800000000000004,0)" xlink:href="#aa"/><use transform="matrix(0.05,0,0,0.05,58.75,0)" xlink:href="#ae"/><use transform="matrix(0.05,0,0,0.05,65.75,0)" xlink:href="#af"/><use transform="matrix(0.05,0,0,0.05,71.7,0)" xlink:href="#aa"/><use transform="matrix(0.05,0,0,0.05,82.65,0)" xlink:href="#ab"/><use transform="matrix(0.05,0,0,0.05,93.60000000000001,0)" xlink:href="#ag"/><use transform="matrix(0.05,0,0,0.05,98.60000000000001,0)" xlink:href="#ah"/></g><path d="M155 0L90-199 52 0H6l48-248h62l66 201 38-201h46L218 0h-63" id="ai"/><path d="M130 0H70L30-248h54l24 206c31-72 69-137 103-206h54" id="aj"/><g id="o"><use transform="matrix(0.05,0,0,0.05,0,0)" xlink:href="#ai"/><use transform="matrix(0.05,0,0,0.05,12.950000000000001,0)" xlink:href="#aj"/></g><path fill="#0c7cba" d="M84 4C-5 8 30-112 23-190h32v120c0 31 7 50 39 49 72-2 45-101 50-169h31l1 190h-30c-1-10 1-25-2-33-11 22-28 36-60 37" id="ak"/><path fill="#0c7cba" d="M210-169c-67 3-38 105-44 169h-31v-121c0-29-5-50-35-48C34-165 62-65 56 0H25l-1-190h30c1 10-1 24 2 32 10-44 99-50 107 0 11-21 27-35 58-36 85-2 47 119 55 194h-31v-121c0-29-5-49-35-48" id="al"/><path fill="#0c7cba" d="M100-194c62-1 85 37 85 99 1 63-27 99-86 99S16-35 15-95c0-66 28-99 85-99zM99-20c44 1 53-31 53-75 0-43-8-75-51-75s-53 32-53 75 10 74 51 75" id="am"/><path fill="#0c7cba" d="M117-194c89-4 53 116 60 194h-32v-121c0-31-8-49-39-48C34-167 62-67 57 0H25l-1-190h30c1 10-1 24 2 32 11-22 29-35 61-36" id="an"/><path fill="#0c7cba" d="M24-231v-30h32v30H24zM24 0v-190h32V0H24" id="ao"/><g id="p"><use transform="matrix(0.05,0,0,0.05,0,0)" xlink:href="#ak"/><use transform="matrix(0.05,0,0,0.05,10,0)" xlink:href="#al"/><use transform="matrix(0.05,0,0,0.05,24.950000000000003,0)" xlink:href="#am"/><use transform="matrix(0.05,0,0,0.05,34.95,0)" xlink:href="#an"/><use transform="matrix(0.05,0,0,0.05,44.95,0)" xlink:href="#ao"/><use transform="matrix(0.05,0,0,0.05,48.900000000000006,0)" xlink:href="#B"/><use transform="matrix(0.05,0,0,0.05,53.900000000000006,0)" xlink:href="#am"/><use transform="matrix(0.05,0,0,0.05,63.900000000000006,0)" xlink:href="#x"/></g><path fill="#0c7cba" d="M16-82v-28h88v28H16" id="ap"/><g id="q"><use transform="matrix(0.05,0,0,0.05,0,0)" xlink:href="#u"/><use transform="matrix(0.05,0,0,0.05,12.950000000000001,0)" xlink:href="#v"/><use transform="matrix(0.05,0,0,0.05,21.950000000000003,0)" xlink:href="#w"/><use transform="matrix(0.05,0,0,0.05,31.950000000000003,0)" xlink:href="#x"/><use transform="matrix(0.05,0,0,0.05,37.900000000000006,0)" xlink:href="#ap"/></g><g id="r"><use transform="matrix(0.05,0,0,0.05,0,0)" xlink:href="#u"/><use transform="matrix(0.05,0,0,0.05,12.950000000000001,0)" xlink:href="#y"/><use transform="matrix(0.05,0,0,0.05,22.950000000000003,0)" xlink:href="#z"/><use transform="matrix(0.05,0,0,0.05,32.95,0)" xlink:href="#A"/><use transform="matrix(0.05,0,0,0.05,42.95,0)" xlink:href="#B"/><use transform="matrix(0.05,0,0,0.05,47.95,0)" xlink:href="#w"/></g><path fill="#0c7cba" d="M76-105c-23 59 45 89 88 55 12-10 18-24 22-45l30-153h51C238-143 259 4 118 4 48 4 11-39 25-112l26-136h52" id="aq"/><path fill="#0c7cba" d="M144-137c-1-29-70-35-71-2 16 41 103 10 103 80C176 9 79 16 32-9 18-17 9-31 4-48l44-6c3 32 80 36 82 1-15-42-103-11-103-82 0-77 157-79 161-8" id="ar"/><path fill="#0c7cba" d="M114-194c63-2 87 48 72 110H63c-3 28 1 55 31 54 21-1 32-13 37-29l44 13C160-14 137 4 91 4 41 4 11-22 11-73c0-71 33-119 103-121zm30 77c14-47-50-61-67-22-3 6-6 13-8 22h75" id="as"/><path fill="#0c7cba" d="M84-151c13-25 34-51 72-40l-8 41C67-170 71-64 56 0H6l36-190h47" id="at"/><path fill="#0c7cba" d="M10-72l8-43h92l-9 43H10" id="au"/><path fill="#0c7cba" d="M69 3c-96 0-34-126-28-193h49L65-57c6 42 62 18 71-6 14-38 17-86 28-127h50L178 0h-47c0-11 4-26 3-33-14 20-30 37-65 36" id="av"/><path fill="#0c7cba" d="M156-122c2-23-7-37-28-37-47 0-58 44-58 89 0 24 12 40 36 40 43 0 47-49 50-92zM-8 75l50-265h48c0 10-3 24-3 30 22-50 127-45 121 29-6 73-21 135-92 135-29 0-46-14-55-35L41 75H-8" id="aw"/><path fill="#0c7cba" d="M132-28C118-9 101 4 69 4 30 4 10-23 10-62c0-70 24-129 92-132 31-1 47 14 56 35l19-102h49L179 0h-49zM62-69c0 22 7 39 29 39 45-2 54-45 57-90 2-27-10-40-33-40-44 0-53 48-53 91" id="ax"/><path fill="#0c7cba" d="M166-52c-4 17 5 29 24 23l-3 27c-30 11-74 1-67-34C105-15 91 4 56 4 23 4 3-15 2-49c0-64 63-67 128-67 10-22 3-53-29-45-13 3-22 10-25 24l-46-5c5-64 156-77 153 0-1 33-11 60-17 90zM97-88c-44-9-64 57-19 57 31 0 42-28 47-57H97" id="ay"/><path fill="#0c7cba" d="M72-63c-8 23 5 39 32 30L98-1C54 14 12-6 23-64l18-93H15l7-33h28l24-45h31l-8 45h35l-6 33H90" id="az"/><path fill="#0c7cba" d="M87-160c15-17 32-34 63-34 99 1 59 172-1 192-36 12-78 0-87-29L54 0H6l52-261h49zm71 38c0-24-5-37-29-37-46 0-55 46-57 89-1 25 12 40 35 40 44 0 51-50 51-92" id="aA"/><path fill="#0c7cba" d="M6 0l51-261h49L55 0H6" id="aB"/><g id="s"><use transform="matrix(0.05,0,0,0.05,0,0)" xlink:href="#aq"/><use transform="matrix(0.05,0,0,0.05,12.950000000000001,0)" xlink:href="#ar"/><use transform="matrix(0.05,0,0,0.05,22.950000000000003,0)" xlink:href="#as"/><use transform="matrix(0.05,0,0,0.05,32.95,0)" xlink:href="#at"/><use transform="matrix(0.05,0,0,0.05,39.95,0)" xlink:href="#au"/><use transform="matrix(0.05,0,0,0.05,45.900000000000006,0)" xlink:href="#av"/><use transform="matrix(0.05,0,0,0.05,56.85,0)" xlink:href="#aw"/><use transform="matrix(0.05,0,0,0.05,67.80000000000001,0)" xlink:href="#ax"/><use transform="matrix(0.05,0,0,0.05,78.75000000000001,0)" xlink:href="#ay"/><use transform="matrix(0.05,0,0,0.05,88.75000000000001,0)" xlink:href="#az"/><use transform="matrix(0.05,0,0,0.05,94.70000000000002,0)" xlink:href="#ay"/><use transform="matrix(0.05,0,0,0.05,104.7,0)" xlink:href="#aA"/><use transform="matrix(0.05,0,0,0.05,115.65000000000003,0)" xlink:href="#aB"/><use transform="matrix(0.05,0,0,0.05,120.65000000000003,0)" xlink:href="#as"/></g><path fill="#0c7cba" d="M155 0L90-199 52 0H6l48-248h62l66 201 38-201h46L218 0h-63" id="aC"/><path fill="#0c7cba" d="M130 0H70L30-248h54l24 206c31-72 69-137 103-206h54" id="aD"/><g id="t"><use transform="matrix(0.05,0,0,0.05,0,0)" xlink:href="#aC"/><use transform="matrix(0.05,0,0,0.05,12.950000000000001,0)" xlink:href="#aD"/></g></defs></g></svg>